<mxfile host="app.diagrams.net" modified="2023-12-20T08:40:21.787Z" agent="Mozilla/5.0 (Windows NT 10.0; Win64; x64) AppleWebKit/537.36 (KHTML, like Gecko) Chrome/120.0.0.0 Safari/537.36 Edg/120.0.0.0" version="22.1.11" etag="AO_6XVjBcOeBCT1gY0ar" type="github">
  <diagram name="Page-1" id="QkqAkj1WA0121laov1X1">
    <mxGraphModel>
      <root>
        <mxCell id="0" />
        <mxCell id="1" parent="0" />
      </root>
    </mxGraphModel>
  </diagram>
</mxfile>
